<svg width="1217" height="252" viewBox="0 0 1217 252" fill="none" xmlns="http://www.w3.org/2000/svg">
<path d="M143.018 161.926C135.268 177.427 129.604 181.899 108.736 181.899H61.6379V97.8373H95.3251C106.65 97.8373 110.826 101.414 115.594 110.95L123.941 127.645H126.921V56.7007H123.941L115.594 73.3927C111.719 81.1454 107.247 86.5079 95.3251 86.5079H61.6379V11.985H114.997C124.538 11.985 135.268 14.9672 143.913 30.7662L157.029 54.3154H159.115V0.0635681H0.53125V1.8519L7.09009 7.51537C11.8606 11.689 13.945 13.7758 13.945 19.1408V174.741C13.945 180.108 11.8606 182.195 7.09009 186.369L0.53125 192.032V193.82H161.501L162.095 127.943H160.008L143.018 161.926Z" fill="white"/>
<path d="M602.963 50.7372C587.761 50.7372 575.539 62.9596 575.539 77.8632C575.539 93.0653 587.761 105.285 602.963 105.285C617.869 105.285 630.089 93.0653 630.089 77.8632C630.089 62.9596 617.869 50.7372 602.963 50.7372Z" fill="white"/>
<path d="M318.887 176.531L274.77 112.442L309.348 70.4105C312.032 67.1347 320.677 57.8897 328.425 53.7185V51.9302H286.993V53.7185C291.465 56.7007 295.937 59.086 295.937 63.2572C295.937 67.1347 293.251 71.3059 289.079 76.6733L268.211 102.904L244.963 69.2191C243.471 67.1347 242.578 64.747 242.578 62.6627C242.578 58.7851 248.836 56.1038 252.116 53.7185V51.9302H174.017V53.7185C178.787 56.9967 184.749 63.2572 188.921 69.2191L229.759 128.538L191.007 175.34C188.326 178.616 179.68 187.861 171.93 192.032V193.82H213.365V192.032C208.893 189.05 204.424 186.667 204.424 182.493C204.424 178.616 207.105 174.445 211.276 169.077L236.315 138.076L261.058 173.848C262.55 175.935 265.232 179.213 265.232 183.088C265.232 186.965 260.464 188.751 255.693 192.032V193.82H333.793V192.032C329.025 188.751 322.762 182.493 318.887 176.531Z" fill="white"/>
<path d="M417.257 182.792H399.073V63.8519H413.081C450.345 63.8519 454.218 96.9398 454.218 125.262C454.218 155.368 445.873 182.792 417.257 182.792ZM429.179 51.9305H339.158V53.7188L345.717 59.3823C350.485 63.5535 352.571 65.6427 352.571 71.0077V231.975C352.571 237.34 350.485 239.429 345.717 243.6L339.158 249.264V251.055H412.487V249.264L405.928 243.6C401.16 239.429 399.073 237.34 399.073 231.975V194.711H429.778C469.124 194.711 501.913 168.182 501.913 121.384C501.913 80.8448 472.999 51.9305 429.179 51.9305Z" fill="white"/>
<path d="M565.405 174.741V51.9302H505.492V53.7185L512.048 59.382C516.816 63.5532 518.903 65.6424 518.903 71.0074V174.741C518.903 180.108 516.816 182.195 512.048 186.369L505.492 192.032V193.82H578.818V192.032L572.262 186.369C567.491 182.195 565.405 180.108 565.405 174.741Z" fill="white"/>
<path d="M1009.55 101.414L983.919 95.7503C969.908 92.7705 960.369 89.7883 960.369 78.4614C960.369 64.1523 975.273 60.2771 985.409 60.2771C1017.9 59.6826 1032.21 79.3544 1039.66 89.1938H1040.85V57.5983C1033.1 53.4198 1017.6 48.3533 990.774 48.3533C949.938 48.3533 928.175 68.6243 928.175 94.8549C928.175 126.154 947.254 135.693 971.102 141.359L981.235 143.744C993.159 146.425 1010.15 148.211 1010.15 163.416C1010.15 175.041 1003.59 186.07 983.919 186.07C976.168 186.07 946.657 183.685 931.157 153.579H929.667V185.771C940.098 192.93 962.755 197.996 981.832 197.996C1021.77 197.996 1048.9 176.534 1048.9 144.637C1048.9 120.789 1032.81 106.48 1009.55 101.414Z" fill="white"/>
<path d="M736.806 110.651H685.833C685.537 87.1039 690.899 59.381 712.066 59.381C730.548 59.381 736.806 81.142 736.806 107.074V110.651ZM715.642 48.3525C663.477 48.3525 637.244 85.0147 637.244 123.768C637.244 167.586 667.35 197.398 725.181 197.398C742.174 197.398 761.845 193.819 777.644 184.878L777.943 153.877H776.751C771.086 164.308 753.797 184.878 726.969 184.878C691.795 184.878 685.833 152.68 685.833 123.172H779.433V112.441C779.433 70.1135 751.712 48.3525 715.642 48.3525Z" fill="white"/>
<path d="M1139.82 185.475C1120.14 185.475 1110.9 169.079 1110.9 122.577C1110.9 75.4785 1121.33 60.2788 1140.11 60.2788C1160.98 60.2788 1168.73 83.5272 1168.73 122.577C1168.73 161.032 1160.98 185.475 1139.82 185.475ZM1139.82 48.3525C1093.61 48.3525 1063.21 81.4404 1063.21 124.664C1063.21 169.974 1091.23 197.398 1139.82 197.398C1186.91 197.398 1216.43 163.714 1216.43 120.493C1216.43 75.1824 1186.61 48.3525 1139.82 48.3525Z" fill="white"/>
<path d="M876.011 101.414L850.375 95.7503C836.364 92.7705 826.828 89.7883 826.828 78.4614C826.828 64.1523 841.732 60.2771 851.867 60.2771C884.358 59.6826 898.665 79.3544 906.116 89.1938H907.31V57.5983C899.56 53.4198 884.059 48.3533 857.232 48.3533C816.394 48.3533 794.633 68.6243 794.633 94.8549C794.633 126.154 813.713 135.693 837.558 141.359L847.693 143.744C859.615 146.425 876.608 148.211 876.608 163.416C876.608 175.041 870.049 186.07 850.375 186.07C842.624 186.07 813.116 183.685 797.615 153.579H796.125V185.771C806.554 192.93 829.213 197.996 848.29 197.996C888.233 197.996 915.359 176.534 915.359 144.637C915.359 120.789 899.264 106.48 876.011 101.414Z" fill="white"/>
</svg>
